<?xml version="1.0" encoding="UTF-8"?>
<svg width="400" height="533" viewBox="0 0 400 533" xmlns="http://www.w3.org/2000/svg">
  <defs>
    <radialGradient cy="137.5%" fx="50%" fy="137.5%" r="133.25017%" gradientTransform="matrix(0 -.75047 1 0 -.875 1.7502345)" id="a">
      <stop stop-color="#18191B" offset="0%"/>
      <stop stop-color="#3F4245" offset="100%"/>
    </radialGradient>
  </defs>
  <g fill-rule="nonzero" fill="none">
    <path fill="url(#a)" style="mix-blend-mode:overlay" d="M0 0h400v533H0z"/>
    <path d="M200 167c-55.229 0-100 44.771-100 100s44.771 100 100 100 100-44.771 100-100c0-55.228-44.772-100-100-100zm10 155h-20v-19h20v19zm26.08-66.068c-2.628 4.16-8.256 9.83-16.882 17.006-3.310125 2.417357-6.129672 5.442906-8.308 8.915-1.340779 3.900553-1.863977 8.03542-1.537 12.147h-19.132v-5.037c-.2-5.29.853-10.552 3.074-15.356 3.151-5.286185 7.31379-9.898896 12.25-13.574 3.970896-2.97846 7.694981-6.272483 11.136-9.85 1.811626-2.324413 2.791838-5.188997 2.784-8.136-.007935-4.082612-1.837712-7.94861-4.99-10.543-3.728272-3.125944-8.504721-4.719047-13.363-4.457-4.864049-.143183-9.61397 1.488702-13.363 4.591-3.936785 3.738047-6.52187 8.67679-7.35 14.042H161c.457696-9.599505 4.559872-18.662919 11.47-25.342 7.023-6.225 16.296-9.338 27.819-9.338 12.13 0 21.782 3.172 28.953 9.517 6.718619 5.40381 10.665548 13.531373 10.758 22.153 0 4.706-1.362 9.312-3.92 13.261v.001z" fill-opacity=".5" fill="#FFF" style="mix-blend-mode:overlay"/>
  </g>
</svg>
