<svg xmlns="http://www.w3.org/2000/svg" width="400" height="533">
  <defs>
    <radialGradient id="a" cy="100%" r="133.25%" fx="50%" fy="100%" gradientTransform="matrix(0 -.75047 1 0 -.5 1.375)">
      <stop offset="0%" stop-color="#18191B"/>
      <stop offset="100%" stop-color="#3F4245"/>
    </radialGradient>
  </defs>
  <g fill="none" fill-rule="nonzero">
    <path fill="url(#a)" d="M0 0h400v533H0z" style="mix-blend-mode:overlay"/>
    <path fill="#FFF" fill-opacity=".5" d="M200 167c-55.229 0-100 44.771-100 100s44.771 100 100 100 100-44.771 100-100c0-55.228-44.772-100-100-100zm10 155h-20v-19h20v19zm26.08-66.068c-2.628 4.16-8.256 9.83-16.882 17.006a32.286 32.286 0 0 0-8.308 8.915A30.041 30.041 0 0 0 209.353 294h-19.132v-5.037c-.2-5.29.853-10.552 3.074-15.356a46.793 46.793 0 0 1 12.25-13.574 92.273 92.273 0 0 0 11.136-9.85 13.178 13.178 0 0 0 2.784-8.136 13.689 13.689 0 0 0-4.99-10.543 19.19 19.19 0 0 0-13.363-4.457 20.036 20.036 0 0 0-13.363 4.591 24.522 24.522 0 0 0-7.35 14.042H161a37.745 37.745 0 0 1 11.47-25.342c7.023-6.225 16.296-9.338 27.819-9.338 12.13 0 21.782 3.172 28.953 9.517A28.826 28.826 0 0 1 240 242.67c0 4.706-1.362 9.312-3.92 13.261z" style="mix-blend-mode:overlay"/>
  </g>
</svg>
