<?xml version="1.0" encoding="UTF-8"?>
<svg xmlns="http://www.w3.org/2000/svg" width="400" height="533" viewBox="0 0 400 533">
  <defs>
    <radialGradient id="a" cy="0%" r="142.322%" fx="50%" fy="0%" gradientTransform="scale(-1 -.75047) rotate(-69.432 0 .722)">
      <stop offset="0%" stop-color="#3F4245"/>
      <stop offset="100%" stop-color="#18191B"/>
    </radialGradient>
  </defs>
  <g fill="none" fill-rule="nonzero">
    <path fill="url(#a)" d="M0 0h400v533H0z" style="mix-blend-mode:overlay"/>
    <path fill="#FFF" fill-opacity=".5" d="M200 167c-55.229 0-100 44.771-100 100s44.771 100 100 100 100-44.771 100-100-44.771-100-100-100zm10 155h-20v-19h20v19zm26.08-66.067c-2.629 4.16-8.256 9.828-16.882 17.005a32.286 32.286 0 0 0-8.308 8.915A30.041 30.041 0 0 0 209.353 294H190.22v-5.037c-.2-5.29.853-10.552 3.074-15.357a46.793 46.793 0 0 1 12.25-13.573 92.272 92.272 0 0 0 11.136-9.851 13.178 13.178 0 0 0 2.784-8.135 13.689 13.689 0 0 0-4.989-10.543 19.19 19.19 0 0 0-13.363-4.457 20.037 20.037 0 0 0-13.364 4.591 24.522 24.522 0 0 0-7.35 14.041H161a37.745 37.745 0 0 1 11.47-25.34c7.023-6.226 16.297-9.339 27.819-9.339 12.131 0 21.782 3.172 28.954 9.517A28.826 28.826 0 0 1 240 242.67c0 4.706-1.362 9.312-3.92 13.262z" style="mix-blend-mode:overlay"/>
  </g>
</svg>
