<?xml version="1.0" encoding="UTF-8"?>
<svg xmlns="http://www.w3.org/2000/svg" width="1920" height="1080" viewBox="0 0 1920 1080">
  <defs>
    <radialGradient id="a" cy="0%" r="133.795%" fx="50%" fy="0%" gradientTransform="matrix(-.3737 .7474 -.42042 -.66436 .687 -.374)">
      <stop offset="0%" stop-color="#3F4245"/>
      <stop offset="100%" stop-color="#18191B"/>
    </radialGradient>
  </defs>
  <g fill="none" fill-rule="nonzero">
    <path fill="url(#a)" d="M0 0h1920v1080H0z" style="mix-blend-mode:overlay"/>
    <path fill="#FFF" fill-opacity=".5" d="M960 365c-96.65 0-175 78.35-175 175s78.35 175 175 175 175-78.35 175-175-78.35-175-175-175zm17.5 271.25h-35V603h35v33.25zm45.64-115.618c-4.6 7.28-14.448 17.2-29.544 29.76a56.501 56.501 0 0 0-14.539 15.6 52.572 52.572 0 0 0-2.69 21.258h-33.48v-8.815a58.736 58.736 0 0 1 5.379-26.874 81.888 81.888 0 0 1 21.437-23.753 161.477 161.477 0 0 0 19.488-17.24 23.062 23.062 0 0 0 4.873-14.236 23.955 23.955 0 0 0-8.731-18.45 33.583 33.583 0 0 0-23.386-7.8 35.064 35.064 0 0 0-23.386 8.035 42.914 42.914 0 0 0-12.863 24.572H891.75a66.054 66.054 0 0 1 20.072-44.347C924.113 447.448 940.342 442 960.505 442c21.23 0 38.12 5.551 50.67 16.654a50.445 50.445 0 0 1 18.825 38.77 42.692 42.692 0 0 1-6.86 23.208z" style="mix-blend-mode:overlay"/>
  </g>
</svg>
