<?xml version="1.0" encoding="UTF-8"?>
<svg width="1920px" height="1080px" viewBox="0 0 1920 1080" version="1.1" xmlns="http://www.w3.org/2000/svg" xmlns:xlink="http://www.w3.org/1999/xlink">
    <!-- Generator: Sketch 51 (57462) - http://www.bohemiancoding.com/sketch -->
    <title>no-np</title>
    <desc>Created with Sketch.</desc>
    <defs>
        <radialGradient cx="68.7%" cy="-37.4%" fx="68.7%" fy="-37.4%" r="133.793332%" gradientTransform="translate(0.687000,-0.374000),scale(0.562500,1.000000),rotate(131.633539),translate(-0.687000,0.374000)" id="radialGradient-1">
            <stop stop-color="#3F4245" offset="0%"></stop>
            <stop stop-color="#18191B" offset="100%"></stop>
        </radialGradient>
    </defs>
    <g id="Page-1" stroke="none" stroke-width="1" fill="none" fill-rule="evenodd">
        <g id="no-np" fill-rule="nonzero">
            <polygon id="Shape" fill="url(#radialGradient-1)" style="mix-blend-mode: overlay;" points="0 0 1920 0 1920 1080 0 1080"></polygon>
            <path d="M960,365 C863.35,365 785,443.35 785,540 C785,636.65 863.35,715 960,715 C1056.65,715 1135,636.65 1135,540 C1135,443.35 1056.65,365 960,365 Z M977.5,636.25 L942.5,636.25 L942.5,603 L977.5,603 L977.5,636.25 Z M1023.14,520.632 C1018.54,527.912 1008.692,537.832 993.596,550.392 C987.803408,554.622016 982.869209,559.916293 979.057,565.992 C976.710457,572.818187 975.794774,580.05447 976.367,587.25 L942.887,587.25 L942.887,578.435 C942.535708,569.178163 944.378881,559.969492 948.266,551.561 C953.780268,542.310766 961.064966,534.239046 969.703,527.808 C976.652166,522.5949 983.169317,516.829522 989.191,510.568 C992.361247,506.500928 994.076945,501.488682 994.064,496.332 C994.050514,489.187741 990.848962,482.42235 985.333,477.882 C978.808343,472.411371 970.449268,469.623345 961.947,470.082 C953.434576,469.831548 945.121938,472.687618 938.561,478.117 C931.671764,484.658143 927.147716,493.300366 925.698,502.689 L891.75,502.689 C892.551237,485.890468 899.729829,470.030115 911.822,458.342 C924.113,447.448 940.342,442 960.505,442 C981.735,442 998.625,447.551 1011.175,458.654 C1022.93268,468.111414 1029.83932,482.335596 1030,497.424 C1029.99974,505.659745 1027.61734,513.719623 1023.14,520.632 Z" id="Shape" fill-opacity="0.5" fill="#FFFFFF" style="mix-blend-mode: overlay;"></path>
        </g>
    </g>
</svg>