<?xml version="1.0" encoding="UTF-8"?>
<svg width="1920" height="1080" viewBox="0 0 1920 1080" xmlns="http://www.w3.org/2000/svg">
  <defs>
    <radialGradient cx="68.7%" cy="-37.4%" fx="68.7%" fy="-37.4%" r="133.793332%" gradientTransform="matrix(-.3737 .7474 -.42042 -.66436 .78649886 -1.13594228)" id="a">
      <stop stop-color="#3F4245" offset="0%"/>
      <stop stop-color="#18191B" offset="100%"/>
    </radialGradient>
  </defs>
  <g fill-rule="nonzero" fill="none">
    <path fill="url(#a)" style="mix-blend-mode:overlay" d="M0 0h1920v1080H0z"/>
    <path d="M960 365c-96.65 0-175 78.35-175 175s78.35 175 175 175 175-78.35 175-175-78.35-175-175-175zm17.5 271.25h-35V603h35v33.25zm45.64-115.618c-4.6 7.28-14.448 17.2-29.544 29.76-5.792592 4.230016-10.726791 9.524293-14.539 15.6-2.346543 6.826187-3.262226 14.06247-2.69 21.258h-33.48v-8.815c-.351292-9.256837 1.491881-18.465508 5.379-26.874 5.514268-9.250234 12.798966-17.321954 21.437-23.753 6.949166-5.2131 13.466317-10.978478 19.488-17.24 3.170247-4.067072 4.885945-9.079318 4.873-14.236-.013486-7.144259-3.215038-13.90965-8.731-18.45-6.524657-5.470629-14.883732-8.258655-23.386-7.8-8.512424-.250452-16.825062 2.605618-23.386 8.035-6.889236 6.541143-11.413284 15.183366-12.863 24.572H891.75c.801237-16.798532 7.979829-32.658885 20.072-44.347C924.113 447.448 940.342 442 960.505 442c21.23 0 38.12 5.551 50.67 16.654 11.75768 9.457414 18.66432 23.681596 18.825 38.77-.00026 8.235745-2.38266 16.295623-6.86 23.208z" fill-opacity=".5" fill="#FFF" style="mix-blend-mode:overlay"/>
  </g>
</svg>
