<?xml version="1.0" encoding="UTF-8"?>
<svg xmlns="http://www.w3.org/2000/svg" width="400" height="533" viewBox="0 0 400 533">
  <defs>
    <radialGradient id="a" cy="0%" r="142.322%" fx="50%" fy="0%" gradientTransform="scale(-1 -.75047) rotate(-69.432 0 .722)">
      <stop offset="0%" stop-color="#3F4245"/>
      <stop offset="100%" stop-color="#18191B"/>
    </radialGradient>
    <linearGradient id="b" x1="0%" y1="50%" y2="50%">
      <stop offset="0%" stop-color="#CA7D29"/>
      <stop offset="100%" stop-color="#F6BD16"/>
    </linearGradient>
    <linearGradient id="c" x1="0%" y1="50%" y2="50%">
      <stop offset="0%" stop-color="#1F1F1F"/>
      <stop offset="100%" stop-color="#2C2C2C"/>
    </linearGradient>
  </defs>
  <g fill="none" fill-rule="evenodd">
    <path fill="url(#a)" fill-rule="nonzero" d="M0 0h400v533H0z" style="mix-blend-mode:overlay"/>
    <g fill-rule="nonzero" transform="translate(100 167)">
      <circle cx="100" cy="100" r="100" fill="url(#b)"/>
      <circle cx="100" cy="100" r="93.333" fill="url(#c)"/>
      <path fill="url(#b)" d="M154.662 144.648l-29.505-29.753c-.344-.344-.723-.607-1.086-.893a49.166 49.166 0 0 0 7.895-26.79C131.966 60.03 110.118 38 83.15 38c-26.954 0-48.817 22.031-48.817 49.212 0 27.185 21.863 49.21 48.817 49.21 9.81 0 18.931-2.941 26.592-7.967.28.374.535.746.873 1.088l29.509 29.756a10.222 10.222 0 0 0 14.534.005c4.009-4.051 4.009-10.609.004-14.656M83.15 120.883c-18.413 0-33.4-15.107-33.4-33.671 0-18.561 14.988-33.672 33.4-33.672 18.411 0 33.4 15.11 33.4 33.672 0 18.564-14.989 33.67-33.4 33.67"/>
    </g>
    <text fill="#FFF" fill-opacity=".45" font-family="OpenSans-Bold, Open Sans" font-size="32" font-weight="bold">
      <tspan x="87" y="463">NEW REQUEST</tspan>
    </text>
  </g>
</svg>
