<?xml version="1.0" encoding="UTF-8"?>
<svg width="400px" height="533px" viewBox="0 0 400 533" version="1.1" xmlns="http://www.w3.org/2000/svg" xmlns:xlink="http://www.w3.org/1999/xlink">
    <!-- Generator: Sketch 51 (57462) - http://www.bohemiancoding.com/sketch -->
    <title>no-request</title>
    <desc>Created with Sketch.</desc>
    <defs>
        <radialGradient cx="67.5976756%" cy="-35.1480994%" fx="67.5976756%" fy="-35.1480994%" r="142.322159%" gradientTransform="translate(0.675977,-0.351481),scale(1.000000,0.750469),rotate(110.567976),translate(-0.675977,0.351481)" id="radialGradient-1">
            <stop stop-color="#3F4245" offset="0%"></stop>
            <stop stop-color="#18191B" offset="100%"></stop>
        </radialGradient>
        <linearGradient x1="0%" y1="50%" x2="100%" y2="50%" id="linearGradient-2">
            <stop stop-color="#CA7D29" offset="0%"></stop>
            <stop stop-color="#F6BD16" offset="100%"></stop>
        </linearGradient>
        <linearGradient x1="0%" y1="50%" x2="100%" y2="50%" id="linearGradient-3">
            <stop stop-color="#1F1F1F" offset="0%"></stop>
            <stop stop-color="#2C2C2C" offset="100%"></stop>
        </linearGradient>
    </defs>
    <g id="Page-1" stroke="none" stroke-width="1" fill="none" fill-rule="evenodd">
        <g id="no-request">
            <polygon id="Shape" fill="url(#radialGradient-1)" fill-rule="nonzero" style="mix-blend-mode: overlay;" points="0 0 400 0 400 533 0 533"></polygon>
            <g id="Group" transform="translate(100.000000, 167.000000)" fill-rule="nonzero">
                <circle id="Oval" fill="url(#linearGradient-2)" cx="100" cy="100" r="100"></circle>
                <circle id="Oval" fill="url(#linearGradient-3)" cx="100" cy="100" r="93.333"></circle>
                <path d="M154.662,144.648 L125.157,114.895 C124.813,114.551 124.434,114.288 124.071,114.002 C129.237039,106.022938 131.979368,96.7174306 131.966,87.212 C131.966,60.03 110.118,38 83.15,38 C56.196,38 34.333,60.031 34.333,87.212 C34.333,114.397 56.196,136.422 83.15,136.422 C92.96,136.422 102.081,133.481 109.742,128.455 C110.022,128.829 110.277,129.201 110.615,129.543 L140.124,159.299 C142.043407,161.240601 144.659767,162.333681 147.389957,162.33462 C150.120146,162.33556 152.737257,161.24428 154.658,159.304 C158.667,155.253 158.667,148.695 154.662,144.648 M83.15,120.883 C64.737,120.883 49.75,105.776 49.75,87.212 C49.75,68.651 64.738,53.54 83.15,53.54 C101.561,53.54 116.55,68.65 116.55,87.212 C116.55,105.776 101.561,120.882 83.15,120.882" id="Shape" fill="url(#linearGradient-2)"></path>
            </g>
            <text id="NEW-REQUEST" fill-opacity="0.45" fill="#FFFFFF" font-family="OpenSans-Bold, Open Sans" font-size="32" font-weight="bold">
                <tspan x="87" y="463">NEW REQUEST</tspan>
            </text>
        </g>
    </g>
</svg>