<?xml version="1.0" encoding="UTF-8"?>
<svg width="131px" height="135px" viewBox="0 0 131 135" version="1.1" xmlns="http://www.w3.org/2000/svg" xmlns:xlink="http://www.w3.org/1999/xlink">
    <!-- Generator: Sketch 51 (57462) - http://www.bohemiancoding.com/sketch -->
    <title>rotten</title>
    <desc>Created with Sketch.</desc>
    <defs></defs>
    <g id="Page-1" stroke="none" stroke-width="1" fill="none" fill-rule="evenodd">
        <g id="rotten" fill-rule="nonzero">
            <g id="Group" transform="translate(0.000000, 22.000000)" fill="#F93208">
                <path d="M17.154,15.829 C-10.995,43.451 3.497,76.84 11.42,87.76 C46.674,129.714 104.212,113.099 123.31,81.853 C128.07,73.65 145.864,28.386 99.334,3.843 L17.154,15.829 Z" id="Shape"></path>
                <polygon id="Shape" points="36.613 14.265 41.391 5.405 69.797 0.365 80.916 9.575"></polygon>
            </g>
            <path d="M36.436,5.57 L45.404,0.287 L52.161,15.766 C55.954,9.443 65.951,-0.55 77.101,11.098 C72.372,12.361 69.584,14.953 69.361,19.574 C84.505,15.404 100.703,22.787 102.899,28.665 C91.95,24.351 75.204,39.042 61.13,31 C61.138,46.045 48.512,47.636 41.227,48.076 C43.304,43.08 46.818,38.082 42.701,33.089 C35.083,41.26 28.827,43.757 9.531,37.757 C14.407,36.078 24.374,26.367 33.979,26.332 C27.204,23.865 21.689,24.245 16.165,24.857 C19.082,20.897 28.315,9.66 44.79,16.381 L36.436,5.57 Z" id="Shape" fill="#02902E"></path>
        </g>
    </g>
</svg>